<?xml version="1.0" encoding="utf-8"?>
<!-- Generator: Adobe Illustrator 16.0.0, SVG Export Plug-In . SVG Version: 6.00 Build 0)  -->
<!DOCTYPE svg PUBLIC "-//W3C//DTD SVG 1.1//EN" "http://www.w3.org/Graphics/SVG/1.1/DTD/svg11.dtd">
<svg version="1.1" id="Layer_1" xmlns="http://www.w3.org/2000/svg" xmlns:xlink="http://www.w3.org/1999/xlink" x="0px" y="0px"
	 width="618px" height="153px" viewBox="126.02 51 618 153" enable-background="new 126.02 51 618 153" xml:space="preserve">
<text transform="matrix(1 0 0 1 138.9268 197.293)" fill="#BCBEC0" font-family="'CenturyGothic'" font-size="93">OccuSense</text>
<g>
	<path fill="#BCBEC0" d="M621.75,140.501c20.045,0,36.352,16.309,36.352,36.354h11.904c-0.002-26.609-21.646-48.258-48.256-48.258
		V140.501z"/>
	<path fill="#BCBEC0" d="M621.75,109.502c37.139,0,67.352,30.214,67.352,67.352v0.002h13.604v-0.002
		c0-44.638-36.314-80.953-80.953-80.953v13.601H621.75z"/>
	<path fill="#BCBEC0" d="M734.399,176.854v-0.002c0-62.114-50.533-112.647-112.648-112.647v14.649
		c54.037,0,98.002,43.962,98.002,97.999v0.002H734.399z"/>
</g>
<text transform="matrix(1 0 0 1 135.7559 193.293)" fill="#2B3990" font-family="'CenturyGothic'" font-size="93">Occu</text>
<text transform="matrix(1 0 0 1 393.459 193.293)" font-family="'CenturyGothic'" font-size="93">Sense</text>
<g>
	<path fill="#2E3192" d="M621.84,132.717c20.045-0.089,36.424,16.148,36.514,36.194l11.902-0.054
		c-0.117-26.61-21.863-48.161-48.471-48.042L621.84,132.717z"/>
	<path fill="#2E3192" d="M621.702,101.721c37.139-0.165,67.486,29.914,67.648,67.05v0.002l13.604-0.062v-0.002
		c-0.197-44.636-36.674-80.79-81.311-80.591L621.702,101.721z"/>
	<path fill="#2E3192" d="M621.565,71.072c54.039-0.24,98.197,43.526,98.438,97.563v0.002l14.646-0.064l-0.002-0.002
		C734.374,106.458,683.616,56.148,621.5,56.424L621.565,71.072z"/>
</g>
</svg>
